<svg width="19" height="19" viewBox="0 0 19 19" fill="none" xmlns="http://www.w3.org/2000/svg">
<path d="M14.3958 0.811514C13.9395 0.492772 13.3112 0.60428 12.9925 1.06057C12.6737 1.51687 12.7852 2.14516 13.2415 2.4639L14.3958 0.811514ZM17.2439 11.6261L18.2153 11.8946L18.2153 11.8946L17.2439 11.6261ZM1.35044 11.6261L0.379068 11.8946L0.37907 11.8946L1.35044 11.6261ZM5.35287 2.4639C5.80916 2.14516 5.92067 1.51687 5.60193 1.06057C5.28318 0.60428 4.65489 0.492772 4.1986 0.811514L5.35287 2.4639ZM10.3045 1.00781C10.3045 0.451211 9.85324 0 9.29664 0C8.74005 0 8.28883 0.451211 8.28883 1.00781H10.3045ZM8.28883 8.69197C8.28883 9.24856 8.74005 9.69977 9.29664 9.69977C9.85324 9.69977 10.3045 9.24856 10.3045 8.69197H8.28883ZM13.2415 2.4639C15.9467 4.35362 17.2095 7.96844 16.2726 11.3576L18.2153 11.8946C19.3662 7.73145 17.842 3.21886 14.3958 0.811514L13.2415 2.4639ZM16.2726 11.3576C15.3381 14.738 12.4724 16.9844 9.29719 16.9844V19C13.4613 19 17.062 16.0664 18.2153 11.8946L16.2726 11.3576ZM9.29719 16.9844C6.12203 16.9844 3.25633 14.738 2.32182 11.3576L0.37907 11.8946C1.53234 16.0664 5.13308 19 9.29719 19V16.9844ZM2.32182 11.3576C1.38492 7.96844 2.64765 4.35362 5.35287 2.4639L4.1986 0.811514C0.752373 3.21886 -0.771814 7.73145 0.379068 11.8946L2.32182 11.3576ZM8.28883 1.00781V8.69197H10.3045V1.00781H8.28883Z" fill="#202244"/>
</svg>
