<svg width="24" height="24" viewBox="0 0 24 24" fill="none" xmlns="http://www.w3.org/2000/svg">
<path d="M12.2449 4.64C14.5442 4.64 16.0952 5.61334 16.9796 6.42667L20.4354 3.12C18.3129 1.18667 15.551 0 12.2449 0C7.45576 0 3.3197 2.69334 1.3061 6.61334L5.26528 9.62667C6.25848 6.73334 9.00678 4.64 12.2449 4.64Z" fill="#F25022"/>
<path d="M24 12.2666C24 11.28 23.9184 10.56 23.7415 9.81329H12.2449V14.2666H18.9932C18.8571 15.3733 18.1224 17.04 16.4898 18.16L20.3537 21.0933C22.6667 19 24 15.92 24 12.2666Z" fill="#4285F4"/>
<path d="M5.27891 14.3733C5.02041 13.6267 4.87075 12.8267 4.87075 12C4.87075 11.1733 5.02041 10.3733 5.26531 9.62668L1.30612 6.61334C0.476191 8.24001 0 10.0667 0 12C0 13.9333 0.476191 15.76 1.30612 17.3867L5.27891 14.3733Z" fill="#FBBC05"/>
<path d="M12.2449 24C15.551 24 18.3265 22.9334 20.3537 21.0934L16.4898 18.16C15.4558 18.8667 14.068 19.36 12.2449 19.36C9.00678 19.36 6.25848 17.2667 5.27889 14.3734L1.3197 17.3867C3.33331 21.3067 7.45576 24 12.2449 24Z" fill="#34A853"/>
</svg>
