<svg width="25" height="20" viewBox="0 0 25 20" fill="none" xmlns="http://www.w3.org/2000/svg">
<path fill-rule="evenodd" clip-rule="evenodd" d="M24.163 9.99978C24.163 10.7581 23.5904 11.3791 22.8913 11.3791H4.32422L10.078 17.6548C10.5873 18.2072 10.5873 19.0693 10.078 19.62C9.85574 19.8628 9.5378 20 9.18743 20C8.86949 20 8.52071 19.8628 8.29847 19.5865L0.380812 10.9657C-0.126937 10.4132 -0.126937 9.55115 0.380812 9.0339L8.29847 0.413026C8.80622 -0.137675 9.60107 -0.137675 10.1104 0.413026C10.6182 0.965452 10.6182 1.82754 10.1104 2.37824L4.32422 8.62044H22.8913C23.5904 8.62044 24.163 9.24149 24.163 9.99978Z" fill="#7C7CE5"/>
</svg>
